<?xml version="1.0" encoding="UTF-8" standalone="no"?>
<svg width="211px" height="76px" viewBox="0 0 211 76" version="1.1" xmlns="http://www.w3.org/2000/svg" xmlns:xlink="http://www.w3.org/1999/xlink">
    <!-- Generator: Sketch 3.6.1 (26313) - http://www.bohemiancoding.com/sketch -->
    <title>Alma logo</title>
    <desc>Created with Sketch.</desc>
    <defs>
        <linearGradient x1="1.63356114%" y1="29.3911249%" x2="95.3027257%" y2="80.8181545%" id="linearGradient-1">
            <stop stop-color="#3A007A" offset="0%"></stop>
            <stop stop-color="#005484" offset="100%"></stop>
        </linearGradient>
    </defs>
    <g id="Page-1" stroke="none" stroke-width="1" fill="none" fill-rule="evenodd">
        <g id="Alma-logo">
            <path d="M42.3636364,67 L28.1090909,26.9272727 L13.2727273,67 L9.56363636,67 L26,23.3636364 L26.8727273,23.3636364 L25.9272727,20.9636364 C24.5212051,17.4242247 23.0909164,14.9757644 21.6363636,13.6181818 C20.1818109,12.2605993 18.2181942,11.5818182 15.7454545,11.5818182 C14.6302975,11.5818182 13.6848524,11.6303025 12.9090909,11.7272727 C12.1333295,11.8242429 11.2848531,11.969696 10.3636364,12.1636364 L9.85454545,8.96363636 C10.7757622,8.769696 11.6606018,8.62424291 12.5090909,8.52727273 C13.35758,8.43030255 14.1939353,8.38181818 15.0181818,8.38181818 C18.5091084,8.38181818 21.3333225,9.27877891 23.4909091,11.0727273 C25.6484956,12.8666756 27.4787804,15.8727062 28.9818182,20.0909091 L46,67 L42.3636364,67 Z M74.8,67.3636364 C70.9211927,67.3636364 67.8787989,65.8848633 65.6727273,62.9272727 C63.4666556,59.9696822 62.3636364,55.8969956 62.3636364,50.7090909 L62.3636364,8.81818182 L66,8.81818182 L66,50.7818182 C66,54.8545658 66.799992,58.0545338 68.4,60.3818182 C70.000008,62.7091025 72.2060465,63.8727273 75.0181818,63.8727273 C75.7454582,63.8727273 76.5939345,63.7515164 77.5636364,63.5090909 C78.5333382,63.2666655 79.3818145,62.9757593 80.1090909,62.6363636 L80.9818182,65.7636364 C80.1090865,66.2000022 79.1515204,66.575756 78.1090909,66.8909091 C77.0666615,67.2060622 75.9636422,67.3636364 74.8,67.3636364 L74.8,67.3636364 Z M98.7272727,33.5454545 L98.7272727,67 L95.0909091,67 L95.0909091,23.3636364 L98.7272727,23.3636364 L98.7272727,30.6363636 L99.4545455,30.6363636 C100.569703,28.2121091 102.20605,26.2727345 104.363636,24.8181818 C106.521223,23.3636291 109.127257,22.6363636 112.181818,22.6363636 C114.896983,22.6363636 117.248475,23.351508 119.236364,24.7818182 C121.224252,26.2121284 122.606057,28.163624 123.381818,30.6363636 L124.181818,30.6363636 C125.296975,28.2121091 127.030291,26.2727345 129.381818,24.8181818 C131.733345,23.3636291 134.509075,22.6363636 137.709091,22.6363636 C141.393958,22.6363636 144.30302,23.8605938 146.436364,26.3090909 C148.569708,28.757588 149.636364,32.1393724 149.636364,36.4545455 L149.636364,67 L146,67 L146,37.6181818 C146,33.5939193 145.272735,30.6484942 143.818182,28.7818182 C142.363629,26.9151422 140.084864,25.9818182 136.981818,25.9818182 C134.703019,25.9818182 132.472738,26.624236 130.290909,27.9090909 C128.10908,29.1939458 126.072737,31.0727149 124.181818,33.5454545 L124.181818,67 L120.545455,67 L120.545455,37.6181818 C120.545455,33.5939193 119.818189,30.6484942 118.363636,28.7818182 C116.909084,26.9151422 114.630319,25.9818182 111.527273,25.9818182 C109.248473,25.9818182 107.018193,26.624236 104.836364,27.9090909 C102.654535,29.1939458 100.618191,31.0727149 98.7272727,33.5454545 L98.7272727,33.5454545 Z M181.272727,64.4545455 C183.745467,64.4545455 186.303017,63.7151589 188.945455,62.2363636 C191.587892,60.7575684 194.242411,58.3454713 196.909091,55 L196.909091,27.5090909 C195.212113,26.9757549 193.51516,26.5515167 191.818182,26.2363636 C190.121204,25.9212105 188.30304,25.7636364 186.363636,25.7636364 C181.369672,25.7636364 177.660618,27.2424095 175.236364,30.2 C172.812109,33.1575905 171.6,37.6908785 171.6,43.8 L171.6,49.6909091 C171.6,54.6848735 172.399992,58.3939273 174,60.8181818 C175.600008,63.2424364 178.024226,64.4545455 181.272727,64.4545455 L181.272727,64.4545455 Z M180.618182,67.7272727 C176.642404,67.7272727 173.515163,66.1272887 171.236364,62.9272727 C168.957564,59.7272567 167.818182,55.3151796 167.818182,49.6909091 L167.818182,43.6545455 C167.818182,37.0605731 169.490892,31.9091095 172.836364,28.2 C176.181835,24.4908905 180.812092,22.6363636 186.727273,22.6363636 C188.957587,22.6363636 191.272715,22.8666644 193.672727,23.3272727 C196.072739,23.7878811 198.363625,24.4302989 200.545455,25.2545455 L200.545455,67 L196.909091,67 L196.909091,58.2727273 L196.181818,58.2727273 C194.2909,61.327288 192.012135,63.6666585 189.345455,65.2909091 C186.678775,66.9151596 183.769713,67.7272727 180.618182,67.7272727 L180.618182,67.7272727 Z" id="Alma" fill="url(#linearGradient-1)"></path>
            <path d="M26,25 L27,22" id="Line" stroke="#36067B" stroke-linecap="square"></path>
        </g>
    </g>
</svg>